<?xml version="1.0" encoding="UTF-8"?>
<svg enable-background="new 0 0 600 600" version="1.1" viewBox="0 0 600 600" xml:space="preserve" xmlns="http://www.w3.org/2000/svg">
<style type="text/css">
	.st0{fill:none;stroke:#000000;stroke-width:25;stroke-linecap:square;stroke-miterlimit:10;}
	.st1{fill:none;stroke:#000000;stroke-width:26.3199;stroke-linecap:square;stroke-miterlimit:10;}
	.st2{fill:none;stroke:#621AFF;stroke-width:20;stroke-miterlimit:10;}
	.st3{fill:none;stroke:#621AFF;stroke-width:25;stroke-linecap:square;stroke-miterlimit:10;}
	.st4{fill:#621AFF;}
	.st5{fill:#FF7FEA;}
</style>
<polyline class="st0" points="-2748.5 170.5 -2948.5 170.5 -2948.5 516.5"/>
<line class="st0" x1="-2948" x2="-2748" y1="349.5" y2="349.5"/>
<polyline class="st0" points="-2811 442.5 -2611 442.5 -2611 96.5"/>
<line class="st0" x1="-2611.5" x2="-2811.5" y1="263.5" y2="263.5"/>
<polyline class="st0" points="-2153.8 269.2 -2153.8 469.2 -1807.8 469.2"/>
<line class="st0" x1="-1974.8" x2="-1974.8" y1="468.8" y2="268.8"/>
<polyline class="st0" points="-1881.8 331.8 -1881.8 131.8 -2227.8 131.8"/>
<line class="st0" x1="-2060.8" x2="-2060.8" y1="132.2" y2="332.2"/>
<polyline class="st1" points="-1193.5 113.5 -1393.5 113.5 -1393.5 497"/>
<line class="st0" x1="-1392.5" x2="-1192.5" y1="274.5" y2="274.5"/>
<polyline class="st1" points="-1288.5 494 -1088.5 494 -1088.5 110.5"/>
<line class="st0" x1="-1089.5" x2="-1289.5" y1="333" y2="333"/>
<polyline class="st2" points="-1117.1 440.3 -1230.9 166.7 -1234.5 164.5 -1347.5 438.5"/>
<polyline class="st1" points="-431.5 109.5 -631.5 109.5 -631.5 493"/>
<line class="st0" x1="-630.5" x2="-430.5" y1="270.5" y2="270.5"/>
<polyline class="st1" points="-526.5 490 -326.5 490 -326.5 106.5"/>
<line class="st0" x1="-327.5" x2="-527.5" y1="329" y2="329"/>
<polyline class="st3" points="-584 432 -470 176 -368 432"/>
<path class="st4" d="M415.5,186.4v-33.9h-85.7l17.7-34h-200V502l41.5-79.6V465h81.2l-17.7,34h200V115.5L415.5,186.4z M215.3,372  l66-126.5h103.4l-66,126.5H215.3z"/>
<polyline class="st1" points="1023.5 147.5 823.5 147.5 823.5 531"/>
<line class="st0" x1="824.5" x2="1024.5" y1="308.5" y2="308.5"/>
<polyline class="st1" points="928.5 528 1128.5 528 1128.5 144.5"/>
<line class="st0" x1="1127.5" x2="927.5" y1="367" y2="367"/>
<rect class="st4" x="861.5" y="181.5" width="230" height="93"/>
<rect class="st5" x="865" y="401" width="230" height="93"/>
</svg>
